<?xml version="1.0" encoding="utf-8"?>
<!-- Generator: Adobe Illustrator 18.0.0, SVG Export Plug-In . SVG Version: 6.00 Build 0)  -->
<svg version="1.1" id="レイヤー_1" xmlns="http://www.w3.org/2000/svg" xmlns:xlink="http://www.w3.org/1999/xlink" x="0px"
	 y="0px" viewBox="0 0 240 240" enable-background="new 0 0 240 240" xml:space="preserve">
<g>
	<g>
		
			<radialGradient id="SVGID_1_" cx="272.4072" cy="325.5717" r="35.5427" gradientTransform="matrix(1.3739 0 0 0.1227 -255.941 90.9892)" gradientUnits="userSpaceOnUse">
			<stop  offset="5.376340e-03" style="stop-color:#404041"/>
			<stop  offset="0.9677" style="stop-color:#CDCFD0;stop-opacity:3.225800e-02"/>
			<stop  offset="1" style="stop-color:#D0D2D3;stop-opacity:0"/>
		</radialGradient>
		<ellipse opacity="0.5" fill="url(#SVGID_1_)" cx="118.3" cy="130.9" rx="68.5" ry="8.1"/>
		<g>
			<g>
				<g>
					<g>
						
							<linearGradient id="SVGID_2_" gradientUnits="userSpaceOnUse" x1="9056.3018" y1="-4134.8438" x2="9094.9941" y2="-4134.8438" gradientTransform="matrix(0.971 -0.2393 -0.2393 -0.971 -9687.0957 -1740.8881)">
							<stop  offset="0" style="stop-color:#B8DEF3"/>
							<stop  offset="0.5" style="stop-color:#33A1D2"/>
							<stop  offset="0.5937" style="stop-color:#319DD0"/>
							<stop  offset="0.7148" style="stop-color:#2993CA"/>
							<stop  offset="0.8509" style="stop-color:#1C82BF"/>
							<stop  offset="0.9951" style="stop-color:#0C6BB0"/>
						</linearGradient>
						<polygon fill="url(#SVGID_2_)" points="132.8,94.2 115.5,106.9 90.3,83.7 118.9,125.8 129.6,109 						"/>
					</g>
					
						<linearGradient id="SVGID_3_" gradientUnits="userSpaceOnUse" x1="9100.5449" y1="-4034.2302" x2="9116.9346" y2="-4034.2302" gradientTransform="matrix(0.9736 -0.2282 -0.2282 -0.9736 -9693.5938 -1752.9169)">
						<stop  offset="0" style="stop-color:#076A9D"/>
						<stop  offset="0.3186" style="stop-color:#4B90B3"/>
						<stop  offset="0.6251" style="stop-color:#70B2C6"/>
						<stop  offset="0.8618" style="stop-color:#87C9D1"/>
						<stop  offset="1" style="stop-color:#90D1D5"/>
					</linearGradient>
					<polygon fill="url(#SVGID_3_)" points="82.1,75.6 100.4,118.6 107.6,112.7 					"/>
				</g>
				<g>
					<g>
						
							<linearGradient id="SVGID_4_" gradientUnits="userSpaceOnUse" x1="8595.7402" y1="5406.2871" x2="8634.4346" y2="5406.2871" gradientTransform="matrix(-0.2782 0.9605 0.9605 0.2782 -2693.6758 -9707.54)">
							<stop  offset="0" style="stop-color:#B8DEF3"/>
							<stop  offset="0.5" style="stop-color:#33A1D2"/>
							<stop  offset="0.5937" style="stop-color:#319DD0"/>
							<stop  offset="0.7148" style="stop-color:#2993CA"/>
							<stop  offset="0.8509" style="stop-color:#1C82BF"/>
							<stop  offset="0.9951" style="stop-color:#0C6BB0"/>
						</linearGradient>
						<polygon fill="url(#SVGID_4_)" points="100.4,90.8 98,69.6 130.7,59.3 79.9,63 89.1,80.7 						"/>
					</g>
					
						<linearGradient id="SVGID_5_" gradientUnits="userSpaceOnUse" x1="8528.5107" y1="5500.9829" x2="8544.8994" y2="5500.9829" gradientTransform="matrix(-0.2892 0.9573 0.9573 0.2892 -2679.9231 -9705.6914)">
						<stop  offset="0" style="stop-color:#076A9D"/>
						<stop  offset="0.3186" style="stop-color:#4B90B3"/>
						<stop  offset="0.6251" style="stop-color:#70B2C6"/>
						<stop  offset="0.8618" style="stop-color:#87C9D1"/>
						<stop  offset="1" style="stop-color:#90D1D5"/>
					</linearGradient>
					<polygon fill="url(#SVGID_5_)" points="141.8,56.2 95.3,50.6 96.9,59.8 					"/>
				</g>
				<g>
					<g>
						
							<linearGradient id="SVGID_6_" gradientUnits="userSpaceOnUse" x1="563.2595" y1="235.6277" x2="601.9538" y2="235.6277" gradientTransform="matrix(-0.6927 -0.7212 -0.7212 0.6927 708.9064 332.9087)">
							<stop  offset="0" style="stop-color:#B8DEF3"/>
							<stop  offset="0.5" style="stop-color:#33A1D2"/>
							<stop  offset="0.5937" style="stop-color:#319DD0"/>
							<stop  offset="0.7148" style="stop-color:#2993CA"/>
							<stop  offset="0.8509" style="stop-color:#1C82BF"/>
							<stop  offset="0.9951" style="stop-color:#0C6BB0"/>
						</linearGradient>
						<polygon fill="url(#SVGID_6_)" points="119.4,64.4 139.1,73 131.6,106.5 153.8,60.6 133.8,59.8 						"/>
					</g>
					
						<linearGradient id="SVGID_7_" gradientUnits="userSpaceOnUse" x1="556.5101" y1="239.2598" x2="572.9014" y2="239.2598" gradientTransform="matrix(-0.6844 -0.7291 -0.7291 0.6844 700.8627 343.8759)">
						<stop  offset="0" style="stop-color:#076A9D"/>
						<stop  offset="0.3186" style="stop-color:#4B90B3"/>
						<stop  offset="0.6251" style="stop-color:#70B2C6"/>
						<stop  offset="0.8618" style="stop-color:#87C9D1"/>
						<stop  offset="1" style="stop-color:#90D1D5"/>
					</linearGradient>
					<polygon fill="url(#SVGID_7_)" points="128.8,117.6 156.8,80.2 148.1,77 					"/>
				</g>
			</g>
			<g opacity="0.4">
				<polygon fill="#FFFFFF" points="98,69.6 130.7,59.3 79.9,63 				"/>
			</g>
			<g>
				<polygon opacity="0.4" fill="#FFFFFF" points="139.1,73 131.6,106.5 153.8,60.6 				"/>
			</g>
			<g>
				<polygon opacity="0.4" fill="#FFFFFF" points="115.5,106.9 90.3,83.7 118.9,125.8 				"/>
			</g>
		</g>
	</g>
	<g>
		<g>
			<path fill="#040000" d="M54,141.7v31.8h-3v-31.8H54z M64,158.7l5.9,13.2v1.7h-2.6l-6.4-14.5h-0.4h-4.8v-2.8h4.8
				c4.3,0,6.4-1.9,6.4-5.7v-0.4c0-3.7-2.1-5.7-6.4-5.7h-4.8v-2.8h4.8c6.4,0,9.4,3.2,9.4,8.7C69.8,154.7,68,157.6,64,158.7z"/>
			<path fill="#040000" d="M89.9,144c-3.8,0.2-5.6,2.3-5.6,5.4c0,4,3.5,5.4,7.2,7c4.2,1.7,8.7,3.7,8.7,9.4c0,4.8-2.8,8-8.6,8.3v-2.8
				c3.8-0.2,5.6-2.3,5.6-5.4c0-3.9-3.5-5.4-7.2-6.9c-4.2-1.8-8.7-3.7-8.7-9.4c0-4.8,2.8-8,8.6-8.3V144z M84.4,165
				c0,3.8,1.9,5.9,5.6,6.2v2.8c-5.8-0.3-8.6-3.6-8.6-9H84.4z M91.6,141.2c5.8,0.3,8.6,3.6,8.6,9h-3c0-3.8-1.8-6-5.6-6.2V141.2z"/>
			<path fill="#040000" d="M113.7,173.5v-31.8h3v31.8H113.7z M123.1,141.7c6.4,0,9.4,3.3,9.4,8.9v14c0,5.6-3,9-9.4,9h-4.8v-2.8h4.8
				c4.3,0,6.4-2.1,6.4-6v-14.2c0-4-2.1-6-6.4-6h-4.8v-2.8H123.1z"/>
			<path fill="#040000" d="M159.6,156.2v2.8h-11.7v14.5h-3v-31.8h3v14.5H159.6z M162,144.5h-12.6v-2.8H162V144.5z"/>
			<path fill="#040000" d="M169.5,144.5v-2.8h20.6v2.8H169.5z M178.3,173.5v-27.5h3v27.5H178.3z"/>
		</g>
		<g>
			<g>
				<path fill="#040000" d="M54.8,180.8L54.8,180.8c0-0.7,0-1-0.1-1.3c1.5,0.1,1.7,0.2,1.7,0.4c0,0.2-0.1,0.2-0.5,0.4v0.6h2.8
					c0.3-0.5,0.4-0.6,0.5-0.6c0.1,0,0.2,0.1,0.7,0.4c0.4,0.3,0.4,0.4,0.4,0.6c0,0.1-0.1,0.3-0.6,0.3c-0.3,0.3-0.6,0.5-0.9,0.7
					l-0.1-0.1c0.1-0.4,0.1-0.6,0.1-1h-6.9c0,0.1,0,0.2,0,0.4c0,0.8-0.5,1.1-0.9,1.1c-0.3,0-0.6-0.2-0.6-0.5c0-0.3,0.1-0.5,0.4-0.7
					c0.4-0.3,0.5-0.6,0.5-1v-0.1l0.1,0c0.1,0.2,0.2,0.4,0.3,0.6H54.8z M60.3,188c-0.4,0.1-0.6,0.5-0.8,0.8c-0.1,0.2-0.1,0.3-0.2,0.3
					c0,0-0.1,0-0.2,0c-1.7-0.4-2.9-1.4-3.5-2.9c-0.3,0.8-0.7,1.4-1.3,1.8c-0.9,0.7-2.2,1.2-3.7,1.3l-0.1-0.1c1.3-0.4,2.4-1,3.1-1.7
					c0.4-0.4,0.6-0.8,0.8-1.4h-2.7l-1,0.1v-0.4l1,0.1h2.8c0.1-0.4,0.2-0.9,0.2-1.3H53l-1,0.1V184l1,0.1h1.8c0-0.3,0-0.5,0-0.8v-0.4
					h-2l-1,0.1v-0.4l1,0.1h2c0-0.6,0-0.9,0-1.2c1.5,0.1,1.6,0.2,1.6,0.3c0,0.1-0.1,0.2-0.4,0.3v0.5h1.5c0.2-0.3,0.4-0.5,0.6-0.8
					c1,0.7,1.1,0.9,1.1,0.9c0,0.1,0,0.1-0.1,0.1H56v0.5c0,0.3,0,0.5,0,0.7h1.2c0.2-0.3,0.4-0.5,0.7-0.8c1.1,0.7,1.2,0.9,1.2,1
					c0,0.1,0,0.1-0.1,0.1h-2.9c0,0.4-0.1,0.9-0.2,1.3h2.8c0.2-0.3,0.4-0.6,0.7-0.9c1.1,0.8,1.2,0.9,1.2,1.1c0,0.1-0.1,0.1-0.2,0.1
					h-4.5c0.8,1.1,2.3,1.7,4.5,1.9L60.3,188z"/>
				<path fill="#040000" d="M70.7,180.8v-0.3c0-0.6,0-0.8-0.1-1.1c1.5,0.1,1.6,0.2,1.6,0.4c0,0.2-0.1,0.2-0.4,0.4v0.7h2.4
					c0.3-0.5,0.4-0.5,0.6-0.5c0.1,0,0.3,0,0.7,0.4c0.4,0.4,0.4,0.4,0.4,0.6c0,0.1-0.1,0.3-0.6,0.3c-0.5,0.4-1,0.8-1.5,1.1l-0.1-0.1
					c0.2-0.5,0.4-0.9,0.6-1.4h-6.3c0,0.1,0,0.2,0,0.3c0,0.8-0.4,1.2-1,1.2c-0.3,0-0.6-0.2-0.6-0.5c0-0.3,0.1-0.5,0.5-0.7
					c0.4-0.2,0.6-0.5,0.7-1l0.2,0c0.1,0.1,0.1,0.3,0.1,0.5H70.7z M70.7,186h-1.8l-1.1,0.1v-0.4l1.1,0.1h4.3c0.2-0.3,0.4-0.6,0.7-0.9
					c1.1,0.8,1.2,0.9,1.2,1.1c0,0.1-0.1,0.1-0.1,0.1h-3c0,0.1-0.1,0.2-0.2,0.3v2.3h2.3c0.2-0.3,0.4-0.6,0.7-0.9
					c1.1,0.8,1.3,0.9,1.3,1.1c0,0.1-0.1,0.1-0.1,0.1h-8.5l-1.1,0.1v-0.4l1.1,0.1h3.1V186z M66.8,185.2c1.3-0.9,2.3-2.2,2.8-3.9
					c1.3,0.3,1.4,0.4,1.4,0.6c0,0.1-0.1,0.2-0.4,0.2c-0.7,1.6-1.9,2.6-3.6,3.2L66.8,185.2z M72.7,183.2c0,0.2,0.1,0.3,0.9,0.3
					c1.1,0,1.4-0.1,1.6-0.4c0.1-0.2,0.3-0.6,0.5-1l0.2,0c-0.1,0.6-0.1,0.9-0.1,1.1c0,0.2,0.4,0.2,0.4,0.5c0,0.5-0.6,0.8-2.6,0.8
					c-1.9,0-2.1-0.2-2.1-0.7c0-0.2,0-0.7,0-1.5c0-0.4,0-0.7,0-0.9c1.4,0.1,1.5,0.2,1.5,0.3c0,0.1-0.1,0.2-0.4,0.3V183.2z"/>
				<path fill="#040000" d="M85.6,180.1c0.2-0.4,0.3-0.5,0.4-0.5c0.1,0,0.2,0,0.6,0.3c0.4,0.3,0.4,0.4,0.4,0.5
					c0,0.1-0.1,0.2-0.4,0.4v0.3c0,1.1,0,1.7,0,2c0,0.2-0.3,0.4-0.8,0.4c-0.2,0-0.3-0.1-0.3-0.2V183h-1.7v5.9c0,0.3-0.3,0.4-0.9,0.4
					c-0.2,0-0.3-0.1-0.3-0.2c0-0.4,0.1-1.5,0.1-7.9c0-0.7,0-1.1,0-1.5c0.9,0.3,1.3,0.4,1.4,0.5H85.6z M85.6,180.4H84l-0.1,0.2v0.8
					h1.7V180.4z M85.6,181.7h-1.7v1h1.7V181.7z M86.3,187.7c0,0.2-0.3,0.4-0.8,0.4c-0.2,0-0.3-0.1-0.3-0.3c0-0.2,0-0.8,0-2.8
					c0-0.5,0-0.8,0-1.1c0.9,0.2,1.2,0.3,1.3,0.4h1.8c0.2-0.5,0.3-0.5,0.4-0.5c0.2,0,0.3,0.1,0.6,0.3c0.3,0.3,0.4,0.4,0.4,0.5
					c0,0.1-0.1,0.2-0.4,0.3v0.3c0,1.6,0,2.1,0,2.3c0,0.3-0.3,0.4-0.8,0.4c-0.2,0-0.3-0.1-0.3-0.3v-0.3h-2V187.7z M88.3,185.6v-1
					h-1.9l-0.1,0.1v0.9H88.3z M86.3,187.1h2v-1.1h-2V187.1z M88.9,183c0,0.2-0.3,0.4-0.8,0.4c-0.2,0-0.3-0.1-0.3-0.2
					c0-0.3,0-0.9,0-2.3c0-0.6,0-0.8,0-1.2c0.9,0.2,1.2,0.3,1.3,0.4h1.6c0.2-0.5,0.4-0.6,0.5-0.6c0.2,0,0.3,0.1,0.6,0.3
					c0.4,0.3,0.5,0.4,0.5,0.5c0,0.1-0.1,0.2-0.4,0.4v0.5c0,5.4,0.1,6.6,0.1,6.9c0,0.7-0.5,1.1-1.3,1.1c-0.2,0-0.2,0-0.3-0.2
					c-0.1-0.5-0.4-0.7-1-0.9l0-0.2c0.4,0,0.8,0.1,1.1,0.1c0.3,0,0.3-0.1,0.3-0.4V183L88.9,183L88.9,183z M90.7,181.4v-1H89l-0.1,0.2
					v0.8H90.7z M88.9,182.7h1.9v-1h-1.9V182.7z"/>
				<path fill="#040000" d="M105.7,182.8c0,0.3,0,0.7,0,0.9c0,0.3,0.4,0.2,0.4,0.5c0,0.5-0.6,0.7-2.9,0.7c-0.3,0-0.6,0-0.9,0
					c-0.6,0.4-1.3,0.8-2,1.1c0.7,0.1,0.8,0.2,0.8,0.3c0,0.1-0.1,0.2-0.4,0.3v1.6h2v-1.6c0-0.5,0-0.9-0.1-1.3
					c1.4,0.1,1.6,0.2,1.6,0.4c0,0.1-0.1,0.2-0.4,0.3v2.2h2.2v-1.7c0-0.4,0-0.6-0.1-0.9c1.4,0.1,1.5,0.2,1.5,0.4
					c0,0.1-0.1,0.2-0.3,0.3v0.5c0,1.4,0,1.7,0,1.8c0,0.3-0.3,0.5-0.8,0.5c-0.2,0-0.4-0.1-0.4-0.3v-0.4h-5.4v0.4
					c0,0.3-0.3,0.5-0.8,0.5c-0.2,0-0.4-0.1-0.4-0.3c0-0.4,0-0.8,0-2.2v-0.6c-0.4,0.1-0.7,0.2-1.1,0.3l-0.1-0.1c1.1-0.5,2-1,2.9-1.6
					c-0.3-0.1-0.4-0.3-0.4-0.6c0-0.4,0-0.6,0-1.4c0-0.3,0-0.6,0-1.1c1.3,0.1,1.4,0.2,1.4,0.3c0,0.1-0.1,0.2-0.3,0.3v1.3
					c0,0.1,0.1,0.2,0.4,0.3c0.9-0.8,1.8-1.8,2.4-2.8c1,0.4,1.1,0.5,1.1,0.6c0,0.1-0.1,0.2-0.4,0.2h-0.1c-0.5,0.7-1.2,1.4-1.9,2
					c1,0,1.3-0.1,1.5-0.4c0.1-0.2,0.3-0.5,0.4-0.9L105.7,182.8z M102.6,180.4L102.6,180.4c0-0.4,0-0.7-0.1-1
					c1.5,0.1,1.6,0.2,1.6,0.3c0,0.1-0.1,0.2-0.4,0.3v0.4h2.8c0.2-0.4,0.3-0.5,0.4-0.5s0.3,0.1,0.7,0.4c0.4,0.3,0.4,0.4,0.4,0.5
					c0,0.1-0.1,0.2-0.6,0.3c-0.3,0.3-0.7,0.6-1.1,0.9l-0.1-0.1c0.2-0.4,0.3-0.8,0.4-1.2h-6.9c0,0.1,0,0.2,0,0.3
					c0,0.7-0.4,1.1-0.8,1.1c-0.3,0-0.6-0.2-0.6-0.5c0-0.3,0.1-0.5,0.4-0.7c0.3-0.2,0.5-0.6,0.5-1l0.2,0c0.1,0.1,0.2,0.3,0.3,0.5
					H102.6z M100.1,182.5c0.2,0.3,0.3,0.7,0.3,1c0,0.7-0.4,1.2-0.9,1.2c-0.4,0-0.6-0.2-0.6-0.5c0-0.2,0.1-0.4,0.4-0.6
					c0.4-0.3,0.6-0.6,0.6-1.1L100.1,182.5z M102.2,181c1,0.1,1.5,0.5,1.5,1c0,0.4-0.3,0.6-0.6,0.6c-0.3,0-0.5-0.2-0.5-0.5
					c-0.1-0.4-0.2-0.7-0.5-1L102.2,181z M106,182.4c1.2,0.2,1.8,0.8,1.8,1.4c0,0.4-0.2,0.7-0.6,0.7c-0.3,0-0.5-0.2-0.6-0.5
					c-0.1-0.6-0.4-1.1-0.7-1.4L106,182.4z"/>
				<path fill="#040000" d="M117.8,182.5c0-0.4,0-0.8,0-1.1c1.3,0.1,1.4,0.2,1.4,0.3c0,0.1-0.1,0.2-0.3,0.3v0.5h1.6
					c0-0.5,0-0.8,0-1.1c1.3,0.1,1.4,0.2,1.4,0.3c0,0.1-0.1,0.2-0.3,0.3v0.5h0.6c0.2-0.3,0.5-0.6,0.7-0.9c1,0.7,1.2,0.9,1.2,1
					c0,0.1-0.1,0.1-0.2,0.1h-2.4c0,0.5,0.1,1.2,0.1,1.5c0,0.3-0.3,0.4-0.9,0.4c-0.2,0-0.3-0.1-0.3-0.2v-0.2h-1.6v0.3
					c0,0.2-0.4,0.4-0.8,0.4c-0.2,0-0.3-0.1-0.3-0.2c0-0.3,0-1,0-1.9h-1.6v0.2c0,3.2-0.6,4.9-1.9,6.2L114,189
					c0.6-1.4,0.9-2.9,0.9-6.1c0-1.7,0-2.1-0.1-2.7c0.9,0.2,1.2,0.4,1.4,0.5h2.5v-0.3c0-0.4,0-0.7-0.1-1c1.3,0.1,1.6,0.2,1.6,0.4
					c0,0.1-0.1,0.2-0.4,0.3v0.6h2.3c0.2-0.3,0.5-0.6,0.7-0.9c1,0.7,1.2,0.9,1.2,1c0,0.1-0.1,0.1-0.2,0.1h-7.8l-0.1,0.1v1.3H117.8z
					 M117.7,185.6l-1.1,0.1v-0.4l1.1,0.1h3.4c0.2-0.4,0.4-0.4,0.5-0.4c0.1,0,0.3,0,0.6,0.3c0.4,0.3,0.5,0.4,0.5,0.5
					c0,0.1-0.1,0.2-0.5,0.3c-0.3,0.6-0.8,1-1.3,1.5c0.9,0.3,2,0.5,3.2,0.5l0,0.2c-0.3,0.1-0.5,0.4-0.7,0.8c-0.1,0.2-0.1,0.3-0.3,0.3
					c0,0-0.1,0-0.2,0c-1.2-0.2-2.2-0.5-3-1.1c-1.2,0.7-2.7,1-4.3,1.1l0-0.1c1.4-0.3,2.6-0.8,3.6-1.5c-0.6-0.6-1.1-1.2-1.4-2H117.7z
					 M118.1,185.6c0.4,0.6,1,1.1,1.7,1.5c0.3-0.3,0.6-0.6,0.8-0.9c0.1-0.2,0.2-0.4,0.4-0.5H118.1z M118.8,182.8v1.2h1.6v-1.2H118.8z
					"/>
				<path fill="#040000" d="M134.1,180.9l-1.8,4.6c-0.2,0.6-0.4,1-0.4,1.3c0,0.6,0.3,1,0.3,1.4c0,0.4-0.3,0.7-0.8,0.7
					c-0.4,0-0.6-0.3-0.6-0.6c0-0.3,0.1-0.8,0.1-1.2c0-0.3-0.2-0.5-0.6-0.6l0-0.1c0.5,0,0.6-0.1,1-0.7l2.6-4.9L134.1,180.9z
					 M130.4,182.3c0.1,0,0.2,0,0.3,0c1,0,1.5,0.5,1.5,0.9c0,0.4-0.2,0.6-0.6,0.6c-0.3,0-0.4-0.1-0.5-0.4c-0.1-0.4-0.4-0.8-0.7-0.9
					L130.4,182.3z M131.3,179.6h0.1c1.1,0,1.6,0.5,1.6,1c0,0.4-0.2,0.6-0.6,0.6c-0.3,0-0.5-0.2-0.6-0.5c-0.1-0.4-0.4-0.8-0.6-1
					L131.3,179.6z M137.1,180.4c0.2-0.5,0.3-0.6,0.5-0.6c0.2,0,0.3,0.1,0.7,0.4c0.4,0.3,0.4,0.4,0.4,0.5c0,0.1-0.1,0.3-0.4,0.4v6.8
					c0,0.2,0.1,0.2,0.3,0.2c0.4,0,0.5,0,0.6-0.3c0.1-0.3,0.3-0.6,0.4-1.1l0.2,0c0,0.4-0.1,0.8-0.1,1.1c0,0.3,0.4,0.3,0.4,0.6
					c0,0.4-0.4,0.7-1.6,0.7c-1.1,0-1.5-0.2-1.5-0.9c0-0.4,0.1-1.1,0.1-6.6v-0.9h-1.6l-0.1,0.1v2.5c0,2-0.3,3.1-0.8,3.9
					c-0.6,0.9-1.4,1.5-2.6,1.9L132,189c0.8-0.5,1.5-1.3,1.8-2.1c0.4-0.9,0.5-1.9,0.5-3.7c0-1.9,0-2.6-0.1-3.3
					c0.9,0.3,1.2,0.4,1.3,0.5H137.1z M135.6,182.9c1.1,0.3,1.4,0.8,1.4,1.2c0,0.5-0.3,0.7-0.6,0.7c-0.3,0-0.5-0.2-0.5-0.5
					c0-0.6-0.1-1-0.4-1.3L135.6,182.9z"/>
				<path fill="#040000" d="M149.4,180.1c0.2-0.4,0.3-0.5,0.4-0.5c0.1,0,0.3,0,0.6,0.3c0.4,0.3,0.4,0.4,0.4,0.5
					c0,0.1-0.1,0.2-0.4,0.4v0.3c0,1.1,0,1.6,0,1.9c0,0.2-0.3,0.4-0.8,0.4c-0.2,0-0.3-0.1-0.3-0.2v-0.2h-1.8v6c0,0.3-0.3,0.4-0.9,0.4
					c-0.2,0-0.3-0.1-0.3-0.2c0-0.4,0.1-1.5,0.1-7.9c0-0.7,0-1.1,0-1.5c0.9,0.3,1.2,0.4,1.4,0.5H149.4z M149.5,180.4h-1.7l-0.1,0.2
					v0.7h1.8V180.4z M149.5,181.6h-1.8v0.9h1.8V181.6z M151.3,184.8c0.1-0.4,0.2-1,0.3-1.5c1.1,0.3,1.3,0.4,1.3,0.5
					c0,0.1-0.1,0.2-0.4,0.2c-0.2,0.3-0.5,0.5-0.8,0.7h0.8c0.2-0.3,0.3-0.4,0.6-0.7c0.9,0.7,1,0.8,1,0.9c0,0.1-0.1,0.1-0.2,0.1h-2.1
					c0,0.1-0.1,0.2-0.2,0.2c0,0.3,0,0.6-0.1,0.8h1.1c0.2-0.3,0.4-0.5,0.6-0.8c1,0.7,1.1,0.8,1.1,0.9c0,0.1-0.1,0.1-0.2,0.1h-2.7
					c0,0.2-0.1,0.4-0.2,0.6c0.6,0.1,1.2,0.2,1.6,0.5c0.4,0.2,0.6,0.5,0.6,0.8c0,0.4-0.2,0.6-0.6,0.6s-0.5-0.1-0.7-0.5
					c-0.3-0.6-0.6-0.9-1-1.1c-0.2,0.3-0.4,0.6-0.7,0.8c-0.6,0.5-1.4,0.8-2.3,0.9l-0.1-0.1c0.8-0.3,1.3-0.7,1.7-1.3
					c0.2-0.3,0.4-0.7,0.5-1.1H149l-1,0.1v-0.4l1,0.1h1.3c0.1-0.3,0.1-0.7,0.1-1h-1.1l-1,0.1v-0.4l1,0.1h0.6
					c-0.1-0.1-0.2-0.2-0.2-0.3c-0.1-0.5-0.2-0.7-0.5-0.9l0.1-0.1c1,0.1,1.4,0.5,1.4,0.9c0,0.2-0.1,0.4-0.2,0.4H151.3z M152.6,182.9
					c-0.1,0.2-0.3,0.3-0.8,0.3c-0.2,0-0.3-0.1-0.3-0.2c0-0.3,0-0.8,0-2.1c0-0.6,0-0.8,0-1.2c0.9,0.2,1.2,0.3,1.3,0.4h1.6
					c0.2-0.5,0.3-0.6,0.5-0.6c0.2,0,0.3,0.1,0.6,0.3c0.4,0.3,0.5,0.4,0.5,0.5c0,0.1-0.1,0.2-0.4,0.4v0.5c0,5.4,0.1,6.5,0.1,6.9
					c0,0.7-0.4,1.1-1.2,1.1c-0.2,0-0.2,0-0.3-0.2c-0.1-0.5-0.3-0.8-0.8-0.9l0-0.2c0.3,0,0.6,0.1,0.8,0.1c0.2,0,0.3-0.1,0.3-0.3v-4.8
					H152.6z M154.5,181.3v-0.9h-1.8l-0.1,0.2v0.7H154.5z M152.7,182.6h1.9v-0.9h-1.9V182.6z"/>
				<path fill="#040000" d="M165.3,182.2v0.4c0.6,0,1.1,0.2,1.4,0.4c0.3,0.2,0.4,0.4,0.4,0.6c0,0.4-0.2,0.6-0.5,0.6
					c-0.3,0-0.4-0.1-0.5-0.4c-0.1-0.4-0.4-0.7-0.7-1c0,0.7,0,1.1,0,1.2c0,0.2-0.3,0.4-0.8,0.4c-0.2,0-0.3-0.1-0.3-0.2
					c0-0.2,0-0.4,0-1.1c-0.6,0.6-1.4,1.1-2.2,1.4l-0.1-0.1c0.7-0.5,1.4-1.3,1.9-2.2h-0.8l-1,0.1v-0.4l1,0.1h1.2v-1.4
					c0-0.4,0-0.7,0-1.1c1.3,0.1,1.4,0.2,1.4,0.3c0,0.1-0.1,0.2-0.4,0.3v1.9h0.1c0.3-0.6,0.5-1.3,0.8-2.2c1.1,0.4,1.2,0.5,1.2,0.6
					c0,0.1-0.1,0.2-0.4,0.2c-0.4,0.5-0.8,1-1.3,1.4h0.6c0.2-0.2,0.4-0.4,0.6-0.7c0.9,0.7,0.9,0.7,0.9,0.8c0,0.1-0.1,0.1-0.2,0.1
					H165.3z M163.2,185.9l-1,0.1v-0.4l1,0.1h0.4c0.2-0.4,0.4-0.8,0.6-1.2c1.1,0.3,1.3,0.4,1.3,0.5s-0.1,0.2-0.4,0.2l-0.3,0.5h1.5
					c0.2-0.3,0.4-0.5,0.6-0.7c0.9,0.7,1,0.8,1,0.9c0,0.1-0.1,0.1-0.2,0.1h-0.6c0,0.1-0.1,0.2-0.3,0.2c-0.2,0.5-0.4,0.9-0.8,1.3
					c0.5,0.2,0.7,0.5,0.7,0.9c0,0.3-0.2,0.5-0.5,0.5c-0.2,0-0.4-0.1-0.6-0.4c-0.1-0.1-0.2-0.2-0.3-0.3c-0.8,0.6-1.8,1-3.1,1.2
					l-0.1-0.1c1.1-0.4,1.9-0.9,2.5-1.5c-0.3-0.2-0.6-0.4-0.9-0.5l-0.1,0.1c-0.1,0.2-0.4,0.3-0.8,0.3c-0.3,0-0.4-0.1-0.4-0.3
					c0.3-0.5,0.6-1,0.9-1.4H163.2z M162.6,179.9c1,0.3,1.4,0.8,1.4,1.3c0,0.3-0.2,0.6-0.5,0.6c-0.3,0-0.4-0.1-0.5-0.4
					c-0.1-0.6-0.3-1-0.5-1.3L162.6,179.9z M164,186.9c0.4,0,0.8,0.1,1.1,0.2c0.3-0.4,0.5-0.8,0.6-1.2h-1.2L164,186.9z M166.3,189.2
					c1.1-0.6,1.9-1.6,2.6-2.8c-0.4-1-0.6-2-0.7-3c-0.3,0.5-0.7,1-1.1,1.4l-0.1-0.1c0.7-1.3,1.2-3.1,1.5-5.2c1.4,0.3,1.6,0.4,1.6,0.5
					c0,0.1-0.1,0.2-0.5,0.3c-0.1,0.5-0.3,1.1-0.6,1.6h1.3c0.2-0.3,0.5-0.6,0.7-0.8c1,0.8,1.1,0.9,1.1,1c0,0.1-0.1,0.1-0.2,0.1h-0.4
					c0,0.1-0.1,0.2-0.2,0.2c-0.2,1.6-0.6,2.9-1.2,4c0.6,0.7,1.3,1.3,2.1,1.7l0,0.2c-0.4,0.1-0.6,0.3-0.9,0.6
					c-0.1,0.1-0.1,0.2-0.2,0.2c-0.1,0-0.1,0-0.2-0.1c-0.6-0.5-1.1-1.1-1.5-1.7c-0.8,0.9-1.9,1.6-3.1,2L166.3,189.2z M168.9,182.2
					c-0.1,0.3-0.3,0.6-0.4,0.8c0.2,0.9,0.5,1.7,1,2.5c0.4-1.1,0.7-2.2,0.8-3.3H168.9z"/>
				<path fill="#040000" d="M179.7,184.1c-0.1,0.1-0.3,0.2-0.5,0.2c-0.3,0-0.4-0.2-0.5-0.4c-0.1-0.4-0.4-0.8-0.7-1l0.1-0.1
					c0.1,0,0.2,0,0.3,0c1,0,1.5,0.5,1.5,0.9c0,0.1,0,0.2,0,0.2l1.5-3.2l0.2,0.1l-1.6,5.1c-0.2,0.6-0.3,0.9-0.3,1.2
					c0,0.5,0.3,1.1,0.3,1.5c0,0.4-0.3,0.7-0.7,0.7c-0.4,0-0.6-0.2-0.6-0.6c0-0.3,0.1-0.8,0.1-1.1c0-0.4-0.1-0.6-0.6-0.7l0-0.1
					c0.4,0,0.5,0,0.8-0.7L179.7,184.1z M178.9,179.8c0.1,0,0.2,0,0.3,0c1,0,1.6,0.4,1.6,0.9c0,0.4-0.2,0.7-0.6,0.7
					c-0.3,0-0.5-0.1-0.6-0.5c-0.1-0.4-0.4-0.8-0.8-1L178.9,179.8z M184.9,186.1c0.9,0.2,1.7,0.7,2.2,1.3c0.3,0.3,0.5,0.6,0.5,0.9
					c0,0.4-0.2,0.7-0.6,0.7c-0.3,0-0.5-0.1-0.6-0.5c-0.1-0.3-0.2-0.5-0.4-0.8c-1.5,0.5-2.9,0.8-4.3,1c-0.1,0.3-0.2,0.3-0.4,0.3
					c-0.1,0-0.3-0.2-0.7-1.4c0.6,0,1.1,0,1.6,0c0.4-0.9,0.8-1.9,1.1-2.9h-1.7l-1,0.1v-0.4l1,0.1h2v-2.2h-1.1l-1.1,0.1v-0.4l1.1,0.1
					h1.1v-0.4c0-0.7,0-1.2-0.1-1.7c1.4,0.1,1.6,0.2,1.6,0.3s-0.1,0.2-0.4,0.4v1.5h0.9c0.2-0.3,0.5-0.7,0.8-0.9
					c1.1,0.9,1.1,1,1.1,1.1c0,0.1,0,0.1-0.1,0.1h-2.7v2.2h1.1c0.2-0.3,0.5-0.6,0.8-0.9c1.2,0.9,1.2,1,1.2,1.1c0,0.1-0.1,0.1-0.2,0.1
					H185c0,0.1-0.1,0.2-0.3,0.2c-0.5,1.1-1.2,1.9-1.9,2.6c1,0,2-0.1,3-0.2c-0.3-0.5-0.6-0.9-1-1.1L184.9,186.1z"/>
			</g>
		</g>
	</g>
</g>
</svg>
